#format: frame checksums
#version: 2
#hash: MD5
#tb 0: 1/25
#media_type 0: video
#codec_id 0: mpeg4
#dimensions 0: 352x288
#sar 0: 0/1
#tb 1: 1/44100
#media_type 1: audio
#codec_id 1: ac3
#sample_rate 1: 44100
#channel_layout 1: 4
#channel_layout_name 1: mono
#stream#, dts,        pts, duration,     size, hash
1,       -256,       -256,     1536,      416, e3bd415f62aa927e9273151fdf21ebce
0,          0,          0,        1,    15854, 95fdffc627c15ec2a1764adb98378cc8, S=1,        8, 9cf0b40a4b63467e3c719c72a911acbd
1,       1280,       1280,     1536,      418, 6e79527e2af3448d7a0e4a8e29cd9722
0,          1,          1,        1,    13318, 61e9d6d30e533292ff37b1168e58ab11, S=1,        8, 36b12655a39dea3638d6feeaa38693f4
1,       2816,       2816,     1536,      418, cf49595ac385e497672e5a814f7bcd79
0,          2,          2,        1,    11475, 5591622b2d2b557ff749fa736c631ff3, S=1,        8, 36b12655a39dea3638d6feeaa38693f4
1,       4352,       4352,     1536,      418, 846982243d330ab782f0120988d52ade
0,          3,          3,        1,    11629, c06ab8d81d16477f11a03c0cac2e99dd, S=1,        8, 36b12655a39dea3638d6feeaa38693f4
1,       5888,       5888,     1536,      418, 77b2d15948434a4831e30c47b8214591
0,          4,          4,        1,     6108, b2077a08d20772f03eb5a438a79e34d6, S=1,        8, 4057375d7213345ff8b5690075371608
1,       7424,       7424,     1536,      418, 4fce87d5cce10f6d0268fb398c385af5
0,          5,          5,        1,     2073, f60858c134b710797b932f6bd67375e8, S=1,        8, c04afc86c8f48384ee20fca6c8e87238
1,       8960,       8960,     1536,      418, 963f2dac9af4672809521f2174b78f10
1,      10496,      10496,     1536,      418, eb7a20193c157b02f7b5d5abf802af24
0,          6,          6,        1,     1593, 722a391dbe8cec12d21c24967bcd3f9a, S=1,        8, d2344c094573d1252fd75c0ba2721f0a
1,      12032,      12032,     1536,      418, 219b234a1e01d3538bfe09fda58b3289
0,          7,          7,        1,     1465, cabebc01bc61ee73be6f5877ea7dcda9, S=1,        8, 25b6cf153f1c4424af08a91be1bea2bb
1,      13568,      13568,     1536,      418, ef7bd3e9c13f03aa6676629101a9a8a0
0,          8,          8,        1,     1306, e8cf3345ce9b5d482f8d766f657173d9, S=1,        8, d0b8916b10362671e64f1d73ba9d851e
1,      15104,      15104,     1536,      418, c5dda974df7e418d9036dff134aad2ae
0,          9,          9,        1,     1386, e8214a31192fed1d3a610aa2ea1b5ea3, S=1,        8, 56c142e2fc6ab90d85490e3bb0b21e8d
1,      16640,      16640,     1536,      418, 48e7a9f574654dd95a325cfec5072254
0,         10,         10,        1,     1205, b99687be797b20ff061d1226b2d4a26b, S=1,        8, c64ed668aab56d6e18d8418938acb050
1,      18176,      18176,     1536,      418, 737d867e328377a3e6623f77f646ea61
0,         11,         11,        1,     1317, ec1c7bfb91f1af72cc22ad37b600024c, S=1,        8, fb7cb9023f678ab152b0ece99ade9b59
1,      19712,      19712,     1536,      418, 5e2a004ad90ba069cecd9fdc1652388c
0,         12,         12,        1,     9546, d574659d05e5ad432928836ced7e734f, S=1,        8, 6be505c5c4671e678387ee2f3bda6994
1,      21248,      21248,     1536,      418, c694e51e609bdd00749a04294cbd60fb
1,      22784,      22784,     1536,      418, 6b787ffae0063d9910deebc8b3e98fd4
0,         13,         13,        1,      859, 3066311e4eeb7f69a9b20939873e2424, S=1,        8, b8160789f7975e1bc3e5dc59254dc976
1,      24320,      24320,     1536,      418, eb6d62198a5472a1c179d42cde60b869
0,         14,         14,        1,     1148, e564909cefb616a28b25283c825dc815, S=1,        8, c64ed668aab56d6e18d8418938acb050
1,      25856,      25856,     1536,      418, 70a6c8e61e8d75f7a310bc7294ad38f6
0,         15,         15,        1,     1277, 84bccfcecef582100f222c16d610d5e8, S=1,        8, 4035ac4c4d4aadf545172fdb0202adc7
1,      27392,      27392,     1536,      418, 6847924a11575b3628ccdfd81a2fb1dc
0,         16,         16,        1,     1325, cc3efca64cb6582b2de50edb0f504f39, S=1,        8, 526bb3ebd360dd8583919f24b6379b18
1,      28928,      28928,     1536,      418, 6f76bbe03d8b4e0080226247e0e54f96
0,         17,         17,        1,     1110, 2faa567250ca713c2c49c52bbec705d2, S=1,        8, ae7b92e39e339916a550e7b0115af8ed
1,      30464,      30464,     1536,      418, c946a8d690aa31fde929678b594cc432
0,         18,         18,        1,     1150, 6c3d1e9219837fe1eca7700df25736ce, S=1,        8, e2a3142bfafcd5f23e7c1a97fdcd1611
1,      32000,      32000,     1536,      418, 3add3833b86a38c229faf8e602f83dcb
0,         19,         19,        1,     1209, fd6b8b2379c5cc5a05990d1bf50a2122, S=1,        8, 72021a86e6819ff2770afb3a7aba9822
1,      33536,      33536,     1536,      418, cb51e6a41f5c4a5f01dd94f58210112b
1,      35072,      35072,     1536,      418, 66c3570cb8c11386b0601fe4a6eb7ee0
0,         20,         20,        1,     1223, d54c50d04e379f767ca0600576c42f1f, S=1,        8, 3f3be12054d7ac9a86b58534b0f85ad5
1,      36608,      36608,     1536,      418, 8b986c15b9ab86432c43cedd1a182e8d
0,         21,         21,        1,     1254, b74fd59594ea997036fb71efaaff5609, S=1,        8, 82e123514584560af379c50e566a0efd
1,      38144,      38144,     1536,      418, 0dd29cc7f63f2afac3eec5e5944165e7
0,         22,         22,        1,     1080, 09fdad0d2419ce79d6058c5989545231, S=1,        8, 1e919d1a427cacb065dec84067c18b2c
1,      39680,      39680,     1536,      418, c4c14deb03d5048f8c6101260c617fae
0,         23,         23,        1,     1096, 2ead3c39825ce9277dfb2d1588499d67, S=1,        8, dc6dbfeaaf3480bede1ca54281219d28
1,      41216,      41216,     1536,      418, 4a3480d888fa0dd49a7bbf2669b5d3ed
0,         24,         24,        1,     9754, ac1468ede7c76fa49b0b5051dcb90c63, S=1,        8, f24545bac4cd7e6e3b37effde87556c1
1,      42752,      42752,     1536,      418, aaeabe149b9185a6f09c271eb2c656dd
0,         25,         25,        1,      789, c77a232b086330716737047f6442e074, S=1,        8, dd599225f54a34977b143c70f35248af
1,      44288,      44288,     1536,      418, 0995488ad1bb84ec4a3e738b568484a4
1,      45824,      45824,     1536,      418, baa39bdfd9f47f7d312312985f59fb72
0,         26,         26,        1,     1012, 24865dcc56c61c306178c451ae00b73a, S=1,        8, 431f741f44fa64eac99ceb1b820e8a04
1,      47360,      47360,     1536,      418, c25bac736a8c356d0a0f9c9299f88880
0,         27,         27,        1,     1138, 8fdddcd003cd2e630aa55c7f5e76da12, S=1,        8, dcec92442f44a3ecbaf807279b2b8699
1,      48896,      48896,     1536,      418, 85378fd6c8b49a1f4c5490ab1e4013ca
0,         28,         28,        1,     1037, 18e607adcfb97d20a072329590bda616, S=1,        8, 309a5035c7a1ea314794289ff903b511
1,      50432,      50432,     1536,      418, 528e28031145f07336cd2a1b9b324ca6
0,         29,         29,        1,     1070, c2d7f9699a335dd78f2c60e3ade8d2da, S=1,        8, 6da58a82c90161d200c2e5bc66901e1c
1,      51968,      51968,     1536,      418, cc9b907fc92fffc61f7e41cdb863d586
0,         30,         30,        1,     1124, d818aa7626cd6bc9707779072a459dee, S=1,        8, 958e599e4bc648be57b7c6e30cae8956
1,      53504,      53504,     1536,      418, fe2f2ca279b14d7053349111578b48c0
0,         31,         31,        1,     1003, e49360236a4506e1ee35070de2cab38c, S=1,        8, e57ab3c3dd96d50ef19af0d10b633f4c
1,      55040,      55040,     1536,      418, 5f2c6037aa4b89572a4ed712082ae2ab
0,         32,         32,        1,     1013, 7649fc13088a882be2cb95bc57990723, S=1,        8, fd54d6fc3ca45da8e73507b3cec3bdb4
1,      56576,      56576,     1536,      418, 17a096694df972c2ef3a9abbe0a9cd6a
1,      58112,      58112,     1536,      418, c96a64bbfd1aae269e44bfdaea7c8a9c
0,         33,         33,        1,     1108, 1e7a69eb26b287579033939d186b1de0, S=1,        8, 9362b100a77fad014652eafe0eb1944d
1,      59648,      59648,     1536,      418, 5f9297244e107134c49fc4982f5a7c1f
0,         34,         34,        1,     1164, 90562532804f73e3338280d2821c8640, S=1,        8, 5c5abe1da5ff1a6a0566a7cb45b02c08
1,      61184,      61184,     1536,      418, da740d2d75b51d6e28bcb068f6a90d41
0,         35,         35,        1,     1126, 5ea80cfb0455babf9b19446198af206b, S=1,        8, c281971cbe0832b1c13585320ff035ea
1,      62720,      62720,     1536,      418, 76e6bbbbfa0692659d0d84a30dcfff34
0,         36,         36,        1,     8456, c7a47c871310914cfc32663cf24166d7, S=1,        8, 3e24aaf4c9d5c084d3a3f0d90f783278
1,      64256,      64256,     1536,      418, 0bd304182f1693b18c46b0faa682b159
0,         37,         37,        1,      694, 86806974f051b415bfc0996af7f47696, S=1,        8, 540ee8ae462556d0a046a736f297b173
1,      65792,      65792,     1536,      418, ecf7bd4ba9161338ce2cefc1fdd06098
0,         38,         38,        1,      892, e71be76af5b6b046e44e3e6257f6bd92, S=1,        8, fc560de809ee8241e933ecd2661108b7
1,      67328,      67328,     1536,      418, 4953c0e441ca0ca2e1970b8b31d6c70e
0,         39,         39,        1,     1083, 505084a26ae78907fabd463e2d05bbcb, S=1,        8, 049eee0ee70335df57ac59af203fe219
1,      68864,      68864,     1536,      418, 4eb7f24aa46b8f0e6b47d0ca6ec0d56d
1,      70400,      70400,     1536,      418, df4d73a6acccd3be6663188f4baab996
0,         40,         40,        1,      993, 0f5368f247b2cf7ecd671435aeda8b37, S=1,        8, 5550ac360fd5ed3a21840259f1a93025
1,      71936,      71936,     1536,      418, 5e60f266106b86f19749b64d86b11f43
0,         41,         41,        1,     1003, aa87dcae3a211b2689284d222ed6db76, S=1,        8, 95a7c655a3d4711b01b9d5cd871d1f30
1,      73472,      73472,     1536,      418, cedea148c5f7ddba6f0fbcbe17e6bfbb
0,         42,         42,        1,     1032, 3386f36294719e0a5186e2f2edaf0969, S=1,        8, 396a23cdb4b96b8b77886469409ad7ca
1,      75008,      75008,     1536,      416, 97655498b413a59b3f0f6bdc25f69084
0,         43,         43,        1,     1028, 2a8be744fbdc6fe0072172c808f455c1, S=1,        8, 4fda569b89ad069d7b82b585cd6ff009
1,      76544,      76544,     1536,      418, 0bea3f23db7aafefe50710310af25a9b
0,         44,         44,        1,      948, cb1c1d28286d5030bd27b393653c4cc4, S=1,        8, 5b4d66a595207277db45b6ecd9b08854
1,      78080,      78080,     1536,      418, e763b383810d9a4645901c0d93f98a32
0,         45,         45,        1,      997, 2cec49ea758e4853dd5036277ae7a97c, S=1,        8, 28a85a0ee15dc8c5b5b69d882ad55a29
1,      79616,      79616,     1536,      418, f090bb15688066a9c5129348f86245e7
0,         46,         46,        1,      978, 876c8edd1ceee6003ad9522fddec3791, S=1,        8, f2b52b616d3de191e5ae7389d57f5ab2
1,      81152,      81152,     1536,      418, beb8658ede31b44326de936b28a2d740
1,      82688,      82688,     1536,      418, 53987c0214550f387ce03093b83f4225
0,         47,         47,        1,      988, 6d707c6f0fa6e525be40889cee04a737, S=1,        8, 720720daf8bcb72639ee2b9a3af9ce83
1,      84224,      84224,     1536,      418, d3c37c202144070892528cc0a0ff3112
0,         48,         48,        1,     8720, 5e230de451b13a8fbfd0432da23ab6b3, S=1,        8, 997caa31a1cdf2d03b5d243cd0755949
1,      85760,      85760,     1536,      418, cf52ea7fc69e4c5bc8f75b354dfe60af
0,         49,         49,        1,      635, 16962fc4bae92dda139fb107d78b8073, S=1,        8, f9e79a0c8a7a7796e9adf5f4f3c48102
1,      87296,      87296,     1536,      418, 78ab22657a1b6c8a0e5b8612ceb8081d
